<svg id="Layer_1" data-name="Layer 1" xmlns="http://www.w3.org/2000/svg" viewBox="0 0 129.91 119.54"><defs><style>.cls-1{fill:#fff;}</style></defs><title>linkedin-icon</title><path class="cls-1" d="M-344,230.45h-25.11V149.67H-344v80.78Zm-13.65-91.15h0c-9.28,0-15.28-6-15.28-14.19s6-14.19,15.28-14.19,15.28,6,15.28,14.19S-347.85,139.3-357.67,139.3ZM-243,230.45H-272v-42c0-10.92-4.37-18.56-14.19-18.56-7.64,0-11.46,4.91-13.65,9.82a24.47,24.47,0,0,0-.55,6.55v43.67h-28.38s0.55-74.23,0-80.78h28.38v12.55c1.64-5.46,10.92-13.65,25.11-13.65,18,0,32.2,11.46,32.2,36.57v45.85Z" transform="translate(372.95 -110.92)"/></svg>