<svg id="Layer_1" data-name="Layer 1" xmlns="http://www.w3.org/2000/svg" viewBox="0 0 400 325.08"><defs><style>.cls-1{fill:#fff;}</style></defs><title>twitter-icon</title><g id="layer1"><path id="path5" class="cls-1" d="M375,131.94a164,164,0,0,1-47.13,12.92A82.38,82.38,0,0,0,364,99.47a164.35,164.35,0,0,1-52.12,19.91A82.14,82.14,0,0,0,172,194.23,233,233,0,0,1,2.85,108.48,82.16,82.16,0,0,0,28.24,218,81.83,81.83,0,0,1-8.93,207.78c0,0.34,0,.68,0,1A82.14,82.14,0,0,0,56.9,289.29a82.16,82.16,0,0,1-37.05,1.4,82.15,82.15,0,0,0,76.65,57A164.61,164.61,0,0,1-5.43,382.81,165,165,0,0,1-25,381.66a232.25,232.25,0,0,0,125.8,36.88c150.94,0,233.49-125,233.49-233.49q0-5.35-.23-10.62A166.83,166.83,0,0,0,375,131.94h0Z" transform="translate(25 -93.46)"/></g></svg>